<svg width="39" height="37" viewBox="0 0 39 37" fill="none" xmlns="http://www.w3.org/2000/svg">
<path d="M29.25 32.375H9.75C8.45707 32.375 7.21709 31.8877 6.30285 31.0204C5.38861 30.153 4.875 28.9766 4.875 27.75V9.25C4.875 8.02337 5.38861 6.84699 6.30285 5.97963C7.21709 5.11228 8.45707 4.625 9.75 4.625H16.25C16.681 4.625 17.0943 4.78743 17.399 5.07654C17.7038 5.36566 17.875 5.75779 17.875 6.16667C17.875 6.57554 17.7038 6.96767 17.399 7.25679C17.0943 7.54591 16.681 7.70833 16.25 7.70833H9.75C9.31902 7.70833 8.9057 7.87076 8.60095 8.15988C8.29621 8.449 8.125 8.84112 8.125 9.25V27.75C8.125 28.1589 8.29621 28.551 8.60095 28.8401C8.9057 29.1292 9.31902 29.2917 9.75 29.2917H29.25C29.681 29.2917 30.0943 29.1292 30.399 28.8401C30.7038 28.551 30.875 28.1589 30.875 27.75V21.5833C30.875 21.1745 31.0462 20.7823 31.351 20.4932C31.6557 20.2041 32.069 20.0417 32.5 20.0417C32.931 20.0417 33.3443 20.2041 33.649 20.4932C33.9538 20.7823 34.125 21.1745 34.125 21.5833V27.75C34.125 28.9766 33.6114 30.153 32.6971 31.0204C31.7829 31.8877 30.5429 32.375 29.25 32.375Z" fill="white"/>
<path d="M34.1249 6.24384V13.9522C34.1233 14.2565 34.0267 14.5536 33.8474 14.806C33.6681 15.0584 33.4141 15.2548 33.1174 15.3705C32.9245 15.4568 32.713 15.499 32.4999 15.4938C32.286 15.495 32.074 15.4561 31.876 15.3794C31.678 15.3027 31.4979 15.1896 31.3461 15.0468L28.3561 12.3334L20.5724 19.718C20.4213 19.8625 20.2416 19.9772 20.0435 20.0555C19.8455 20.1337 19.6331 20.174 19.4186 20.174C19.2041 20.174 18.9917 20.1337 18.7937 20.0555C18.5956 19.9772 18.4159 19.8625 18.2649 19.718C18.1125 19.5747 17.9917 19.4042 17.9092 19.2163C17.8267 19.0284 17.7842 18.8269 17.7842 18.6234C17.7842 18.4199 17.8267 18.2184 17.9092 18.0305C17.9917 17.8427 18.1125 17.6722 18.2649 17.5288L25.9999 10.098L23.1399 7.33842C22.9061 7.12682 22.7442 6.85395 22.6748 6.55463C22.6053 6.25532 22.6314 5.94315 22.7499 5.658C22.8795 5.35618 23.1065 5.10109 23.3985 4.92935C23.6905 4.75762 24.0323 4.67809 24.3749 4.70217H32.4999C32.6343 4.68001 32.7717 4.68001 32.9061 4.70217C32.9812 4.68843 33.0585 4.68843 33.1336 4.70217C33.3286 4.77504 33.5056 4.88518 33.6538 5.02575C33.802 5.16631 33.918 5.3343 33.9949 5.51925C34.0093 5.59054 34.0093 5.6638 33.9949 5.73509C34.0797 5.89262 34.1243 6.06692 34.1249 6.24384Z" fill="white"/>
</svg>
