<svg width="39" height="37" viewBox="0 0 39 37" fill="none" xmlns="http://www.w3.org/2000/svg">
<path d="M9.75 32.375H29.25C30.5429 32.375 31.7829 31.8877 32.6971 31.0204C33.6114 30.153 34.125 28.9766 34.125 27.75V9.25C34.125 8.02337 33.6114 6.84699 32.6971 5.97963C31.7829 5.11228 30.5429 4.625 29.25 4.625H22.75C22.319 4.625 21.9057 4.78743 21.601 5.07654C21.2962 5.36566 21.125 5.75779 21.125 6.16667C21.125 6.57554 21.2962 6.96767 21.601 7.25679C21.9057 7.54591 22.319 7.70833 22.75 7.70833H29.25C29.681 7.70833 30.0943 7.87076 30.399 8.15988C30.7038 8.449 30.875 8.84112 30.875 9.25V27.75C30.875 28.1589 30.7038 28.551 30.399 28.8401C30.0943 29.1292 29.681 29.2917 29.25 29.2917H9.75C9.31902 29.2917 8.9057 29.1292 8.60095 28.8401C8.2962 28.551 8.125 28.1589 8.125 27.75V21.5833C8.125 21.1745 7.9538 20.7823 7.64905 20.4932C7.3443 20.2041 6.93098 20.0417 6.5 20.0417C6.06902 20.0417 5.6557 20.2041 5.35095 20.4932C5.0462 20.7823 4.875 21.1745 4.875 21.5833V27.75C4.875 28.9766 5.38861 30.153 6.30285 31.0204C7.21709 31.8877 8.45707 32.375 9.75 32.375Z" fill="#808080"/>
<path d="M4.87515 6.24384V13.9522C4.87675 14.2565 4.97328 14.5536 5.15257 14.806C5.33186 15.0584 5.58589 15.2548 5.88265 15.3705C6.0755 15.4568 6.28698 15.499 6.50015 15.4938C6.71401 15.495 6.92601 15.4561 7.124 15.3794C7.32198 15.3027 7.50206 15.1896 7.6539 15.0468L10.6439 12.3334L18.4276 19.718C18.5787 19.8625 18.7584 19.9772 18.9565 20.0555C19.1545 20.1337 19.3669 20.174 19.5814 20.174C19.7959 20.174 20.0083 20.1337 20.2063 20.0555C20.4044 19.9772 20.5841 19.8625 20.7351 19.718C20.8875 19.5747 21.0083 19.4042 21.0908 19.2163C21.1733 19.0284 21.2158 18.8269 21.2158 18.6234C21.2158 18.4199 21.1733 18.2184 21.0908 18.0305C21.0083 17.8427 20.8875 17.6722 20.7351 17.5288L13.0001 10.098L15.8601 7.33842C16.0939 7.12682 16.2558 6.85395 16.3252 6.55463C16.3947 6.25532 16.3686 5.94315 16.2501 5.658C16.1205 5.35618 15.8935 5.10109 15.6015 4.92935C15.3095 4.75762 14.9677 4.67809 14.6251 4.70217H6.50015C6.36574 4.68001 6.22831 4.68001 6.0939 4.70217C6.01875 4.68843 5.94154 4.68843 5.8664 4.70217C5.67145 4.77504 5.49438 4.88518 5.34622 5.02575C5.19805 5.16631 5.08195 5.3343 5.00515 5.51925C4.99067 5.59054 4.99067 5.6638 5.00515 5.73509C4.92027 5.89262 4.87573 6.06692 4.87515 6.24384Z" fill="#808080"/>
</svg>
